<mxfile host="app.diagrams.net" modified="2021-01-14T07:27:49.453Z" agent="5.0 (Windows)" etag="6_Ha5_D9bTAZzXtiH6TU" version="14.2.2" type="github">
  <diagram id="PyPKjIppV08r7GPjyfWM" name="Page-1">
    <mxGraphModel dx="782" dy="707" grid="1" gridSize="10" guides="1" tooltips="1" connect="1" arrows="1" fold="1" page="1" pageScale="1" pageWidth="827" pageHeight="1169" math="0" shadow="0">
      <root>
        <mxCell id="0" />
        <mxCell id="1" parent="0" />
        <mxCell id="OZGRXzvpJfpL2iM_4Q1l-8" style="edgeStyle=orthogonalEdgeStyle;rounded=0;orthogonalLoop=1;jettySize=auto;html=1;entryX=0.5;entryY=0;entryDx=0;entryDy=0;" edge="1" parent="1" source="OZGRXzvpJfpL2iM_4Q1l-3" target="OZGRXzvpJfpL2iM_4Q1l-4">
          <mxGeometry relative="1" as="geometry" />
        </mxCell>
        <mxCell id="OZGRXzvpJfpL2iM_4Q1l-3" value="开始" style="rounded=1;whiteSpace=wrap;html=1;" vertex="1" parent="1">
          <mxGeometry x="105" y="180" width="120" height="40" as="geometry" />
        </mxCell>
        <mxCell id="OZGRXzvpJfpL2iM_4Q1l-7" style="edgeStyle=orthogonalEdgeStyle;rounded=0;orthogonalLoop=1;jettySize=auto;html=1;entryX=-0.012;entryY=0.4;entryDx=0;entryDy=0;entryPerimeter=0;" edge="1" parent="1" source="OZGRXzvpJfpL2iM_4Q1l-4" target="OZGRXzvpJfpL2iM_4Q1l-6">
          <mxGeometry relative="1" as="geometry" />
        </mxCell>
        <mxCell id="OZGRXzvpJfpL2iM_4Q1l-12" style="edgeStyle=orthogonalEdgeStyle;rounded=0;orthogonalLoop=1;jettySize=auto;html=1;exitX=0.5;exitY=1;exitDx=0;exitDy=0;entryX=0.5;entryY=0;entryDx=0;entryDy=0;" edge="1" parent="1" source="OZGRXzvpJfpL2iM_4Q1l-4" target="OZGRXzvpJfpL2iM_4Q1l-11">
          <mxGeometry relative="1" as="geometry" />
        </mxCell>
        <mxCell id="OZGRXzvpJfpL2iM_4Q1l-4" value="&lt;div&gt;NOTICE-LETTER:file_to_image_index&lt;/div&gt;&lt;div&gt;是否存在&lt;br&gt;&lt;/div&gt;" style="rhombus;whiteSpace=wrap;html=1;" vertex="1" parent="1">
          <mxGeometry x="70" y="260" width="190" height="130" as="geometry" />
        </mxCell>
        <mxCell id="OZGRXzvpJfpL2iM_4Q1l-18" style="edgeStyle=orthogonalEdgeStyle;rounded=0;orthogonalLoop=1;jettySize=auto;html=1;entryX=0.5;entryY=0;entryDx=0;entryDy=0;" edge="1" parent="1" source="OZGRXzvpJfpL2iM_4Q1l-6" target="OZGRXzvpJfpL2iM_4Q1l-15">
          <mxGeometry relative="1" as="geometry">
            <Array as="points">
              <mxPoint x="410" y="670" />
              <mxPoint x="320" y="670" />
            </Array>
          </mxGeometry>
        </mxCell>
        <mxCell id="OZGRXzvpJfpL2iM_4Q1l-6" value="获取2020-1-14 0:0:0之前1000条记录并处理，将最后一条index记入redis" style="rounded=0;whiteSpace=wrap;html=1;" vertex="1" parent="1">
          <mxGeometry x="330" y="295" width="160" height="75" as="geometry" />
        </mxCell>
        <mxCell id="OZGRXzvpJfpL2iM_4Q1l-9" value="否" style="text;html=1;strokeColor=none;fillColor=none;align=center;verticalAlign=middle;whiteSpace=wrap;rounded=0;" vertex="1" parent="1">
          <mxGeometry x="270" y="295" width="40" height="20" as="geometry" />
        </mxCell>
        <mxCell id="OZGRXzvpJfpL2iM_4Q1l-14" style="edgeStyle=orthogonalEdgeStyle;rounded=0;orthogonalLoop=1;jettySize=auto;html=1;entryX=0.5;entryY=0;entryDx=0;entryDy=0;" edge="1" parent="1" source="OZGRXzvpJfpL2iM_4Q1l-11" target="OZGRXzvpJfpL2iM_4Q1l-13">
          <mxGeometry relative="1" as="geometry" />
        </mxCell>
        <mxCell id="OZGRXzvpJfpL2iM_4Q1l-17" style="edgeStyle=orthogonalEdgeStyle;rounded=0;orthogonalLoop=1;jettySize=auto;html=1;" edge="1" parent="1" source="OZGRXzvpJfpL2iM_4Q1l-11">
          <mxGeometry relative="1" as="geometry">
            <mxPoint x="320" y="700" as="targetPoint" />
          </mxGeometry>
        </mxCell>
        <mxCell id="OZGRXzvpJfpL2iM_4Q1l-11" value="&lt;div&gt;NOTICE-LETTER:file_to_image_index&lt;/div&gt;&lt;div&gt;索引值大于0&lt;br&gt;&lt;/div&gt;" style="rhombus;whiteSpace=wrap;html=1;" vertex="1" parent="1">
          <mxGeometry x="70" y="420" width="190" height="130" as="geometry" />
        </mxCell>
        <mxCell id="OZGRXzvpJfpL2iM_4Q1l-16" style="edgeStyle=orthogonalEdgeStyle;rounded=0;orthogonalLoop=1;jettySize=auto;html=1;" edge="1" parent="1" source="OZGRXzvpJfpL2iM_4Q1l-13" target="OZGRXzvpJfpL2iM_4Q1l-15">
          <mxGeometry relative="1" as="geometry">
            <Array as="points">
              <mxPoint x="165" y="670" />
              <mxPoint x="320" y="670" />
            </Array>
          </mxGeometry>
        </mxCell>
        <mxCell id="OZGRXzvpJfpL2iM_4Q1l-13" value="取出最近1000条数据进行处理，将最后一条index记入redis" style="rounded=0;whiteSpace=wrap;html=1;" vertex="1" parent="1">
          <mxGeometry x="77.5" y="590" width="175" height="60" as="geometry" />
        </mxCell>
        <mxCell id="OZGRXzvpJfpL2iM_4Q1l-15" value="结束" style="rounded=1;whiteSpace=wrap;html=1;" vertex="1" parent="1">
          <mxGeometry x="260" y="700" width="120" height="60" as="geometry" />
        </mxCell>
        <mxCell id="OZGRXzvpJfpL2iM_4Q1l-19" value="否" style="text;html=1;strokeColor=none;fillColor=none;align=center;verticalAlign=middle;whiteSpace=wrap;rounded=0;" vertex="1" parent="1">
          <mxGeometry x="270" y="460" width="40" height="20" as="geometry" />
        </mxCell>
      </root>
    </mxGraphModel>
  </diagram>
</mxfile>
